<?xml version="1.0" encoding="iso-8859-1"?>
<!-- Generator: Adobe Illustrator 19.0.0, SVG Export Plug-In . SVG Version: 6.00 Build 0)  -->
<svg xmlns="http://www.w3.org/2000/svg" xmlns:xlink="http://www.w3.org/1999/xlink" version="1.1" id="Capa_1" x="0px" y="0px" viewBox="0 0 512 512" style="enable-background:new 0 0 512 512;" xml:space="preserve" width="512px" height="512px">
<g>
	<g>
		<path d="M449.602,23.642C413.396,8.396,365.949,0,316,0c-49.902,0-97.186,8.402-133.139,23.658C142.97,40.586,121,64.502,121,91    c0,2.153,0.152,4.293,0.445,6.42c-21.637,3.901-41.617,9.516-58.957,16.685C22.192,130.767,0,154.524,0,181    c0,11.492,4.372,28.75,25.198,45.704c3.007,2.448,4.802,6.521,4.802,10.897V467c0,24.813,20.187,45,45,45h241    c24.813,0,45-20.187,45-45v-76h76c24.813,0,45-20.187,45-45V147.601c0-4.375,1.795-8.449,4.802-10.897    C507.628,119.75,512,102.492,512,91C512,64.509,489.84,40.587,449.602,23.642z M346.862,203.439    C336.781,211.645,331,224.097,331,237.601V467c0,8.271-6.729,15-15,15H75c-8.271,0-15-6.729-15-15V237.601    c0-13.504-5.781-25.955-15.862-34.162C37.688,198.188,30,190.033,30,181c0-13.148,16.431-27.792,43.952-39.172    C110.607,126.672,156.178,121,196,121c46.146,0,89.299,7.391,121.511,20.813C344.742,153.159,361,167.809,361,181    C361,190.033,353.312,198.188,346.862,203.439z M467.862,113.439C457.781,121.645,452,134.097,452,147.601V346    c0,8.271-6.729,15-15,15h-76V237.601c0-4.375,1.795-8.449,4.802-10.896C386.628,209.75,391,192.492,391,181    c0-26.482-22.001-50.234-61.951-66.879C293.266,99.211,246.015,91,196,91c-15.276,0-30.303,0.768-44.839,2.253    C151.061,92.502,151,91.751,151,91c0-25.472,62.771-61,165-61c46.042,0,89.354,7.561,121.958,21.291    C465.536,62.904,482,77.749,482,91C482,100.033,474.312,108.188,467.862,113.439z" fill="#FFFFFF"/>
	</g>
</g>
</svg>
